<?xml version="1.0" encoding="UTF-8" standalone="no"?>
<!-- Created with Inkscape (http://www.inkscape.org/) -->

<svg
   xmlns:dc="http://purl.org/dc/elements/1.1/"
   xmlns:cc="http://creativecommons.org/ns#"
   xmlns:rdf="http://www.w3.org/1999/02/22-rdf-syntax-ns#"
   xmlns:svg="http://www.w3.org/2000/svg"
   xmlns="http://www.w3.org/2000/svg"
   xmlns:sodipodi="http://sodipodi.sourceforge.net/DTD/sodipodi-0.dtd"
   xmlns:inkscape="http://www.inkscape.org/namespaces/inkscape"
   width="210mm"
   height="297mm"
   viewBox="0 0 210 297"
   version="1.1"
   id="svg8"
   inkscape:version="0.92.0 r15299"
   sodipodi:docname="Lgo.svg">
  <defs
     id="defs2" />
  <sodipodi:namedview
     id="base"
     pagecolor="#ffffff"
     bordercolor="#666666"
     borderopacity="1.0"
     inkscape:pageopacity="0.0"
     inkscape:pageshadow="2"
     inkscape:zoom="0.35"
     inkscape:cx="400"
     inkscape:cy="560"
     inkscape:document-units="mm"
     inkscape:current-layer="flowRoot3695"
     showgrid="false"
     inkscape:snap-text-baseline="true"
     inkscape:window-width="1366"
     inkscape:window-height="705"
     inkscape:window-x="-8"
     inkscape:window-y="-8"
     inkscape:window-maximized="1" />
  <metadata
     id="metadata5">
    <rdf:RDF>
      <cc:Work
         rdf:about="">
        <dc:format>image/svg+xml</dc:format>
        <dc:type
           rdf:resource="http://purl.org/dc/dcmitype/StillImage" />
        <dc:title></dc:title>
      </cc:Work>
    </rdf:RDF>
  </metadata>
  <g
     inkscape:label="Capa 1"
     inkscape:groupmode="layer"
     id="layer1">
    <path
       style="fill:#ffffff;stroke-width:0.75595242"
       d="M 439.35952,115.34464 V 54.490474 h -97.51785 -97.51786 v 60.854166 60.85416 h 97.51786 97.51785 z"
       id="path3685"
       inkscape:connector-curvature="0" />
    <flowRoot
       xml:space="preserve"
       id="flowRoot3687"
       style="fill:black;fill-opacity:1;stroke:none;font-family:sans-serif;font-style:normal;font-weight:normal;font-size:40px;line-height:25px;letter-spacing:0px;word-spacing:0px"><flowRegion
         id="flowRegion3689"><rect
           id="rect3691"
           width="682.28571"
           height="388"
           x="32"
           y="291.66254" /></flowRegion><flowPara
         id="flowPara3693" /></flowRoot>    <g
       aria-label="Curriculum Vitae JM"
       transform="matrix(0.91769333,0,0,3.2655152,-1151.9591,-1290.7814)"
       style="font-style:normal;font-weight:normal;font-size:20.15399933px;line-height:25px;font-family:sans-serif;letter-spacing:0px;word-spacing:0px;fill:#000000;fill-opacity:1;stroke:none"
       id="flowRoot3695">
      <path
         id="path61"
         d="m 1158.2766,449.38265 h -1.9485 v -12.62577 l -4.0741,8.59104 h -1.1612 l -4.0446,-8.59104 v 12.62577 h -1.8206 v -14.65298 h 2.6571 l 3.9068,8.15804 3.7788,-8.15804 h 2.7063 z m -16.8475,-3.8084 q 0,1.92881 -1.1809,2.97193 -1.1711,1.04313 -3.1491,1.04313 -0.4723,0 -1.2596,-0.0886 -0.7873,-0.0787 -1.3187,-0.19681 v -1.82056 h 0.1083 q 0.4034,0.13778 0.9939,0.28539 0.5904,0.14761 1.2104,0.14761 0.9054,0 1.4368,-0.20666 0.5412,-0.20665 0.7971,-0.59045 0.2657,-0.39363 0.3346,-0.9644 0.079,-0.57076 0.079,-1.31867 v -8.55167 h -3.0999 v -1.55485 h 5.0484 z m -15.4107,-1.4958 h -8.099 q 0,1.0136 0.305,1.77135 0.3051,0.7479 0.8365,1.2301 0.5117,0.47236 1.2104,0.70854 0.7086,0.23618 1.5549,0.23618 1.1218,0 2.2535,-0.44284 1.1415,-0.45268 1.6237,-0.88567 h 0.099 v 2.01737 q -0.9349,0.39363 -1.9092,0.65933 -0.9742,0.2657 -2.0469,0.2657 -2.7357,0 -4.2709,-1.47612 -1.5351,-1.48596 -1.5351,-4.21187 0,-2.69639 1.4662,-4.28076 1.4762,-1.58437 3.8773,-1.58437 2.2241,0 3.4246,1.29899 1.2105,1.29899 1.2105,3.69031 z m -1.8009,-1.41708 q -0.01,-1.45644 -0.7381,-2.25355 -0.7184,-0.7971 -2.1945,-0.7971 -1.4859,0 -2.3716,0.87583 -0.8758,0.87583 -0.9939,2.17482 z m -10.9824,6.72128 h -1.8402 v -1.17106 q -0.246,0.1673 -0.6692,0.47236 -0.4133,0.29523 -0.8069,0.47236 -0.4626,0.22634 -1.0628,0.37395 -0.6003,0.15746 -1.4073,0.15746 -1.4859,0 -2.5192,-0.98408 -1.0333,-0.98409 -1.0333,-2.50941 0,-1.24979 0.5314,-2.01737 0.5412,-0.77743 1.5352,-1.22026 1.0037,-0.44284 2.411,-0.60029 1.4072,-0.15746 3.0211,-0.23618 v -0.28539 q 0,-0.62981 -0.2264,-1.04312 -0.2165,-0.41332 -0.6298,-0.6495 -0.3936,-0.22634 -0.9447,-0.30506 -0.5511,-0.0787 -1.1514,-0.0787 -0.7282,0 -1.6237,0.19682 -0.8955,0.18697 -1.8501,0.55108 h -0.098 v -1.87959 q 0.5413,-0.14762 1.5647,-0.32475 1.0235,-0.17714 2.0174,-0.17714 1.1612,0 2.0173,0.19682 0.866,0.18698 1.4959,0.64949 0.6199,0.45268 0.9447,1.17106 0.3247,0.71838 0.3247,1.78119 z m -1.8402,-2.70622 v -3.0605 q -0.8463,0.0492 -1.9977,0.14761 -1.1415,0.0984 -1.8107,0.28539 -0.7971,0.22634 -1.2892,0.70854 -0.492,0.47236 -0.492,1.30883 0,0.94471 0.5708,1.42691 0.5707,0.47236 1.7418,0.47236 0.9742,0 1.7812,-0.37395 0.8069,-0.38379 1.4958,-0.91519 z m -8.9453,2.60781 q -0.5216,0.13778 -1.1415,0.22634 -0.6102,0.0886 -1.0924,0.0886 -1.6828,0 -2.5586,-0.90536 -0.8758,-0.90535 -0.8758,-2.90304 v -5.84544 h -1.2498 v -1.55485 h 1.2498 v -3.15891 h 1.8501 v 3.15891 h 3.8182 v 1.55485 h -3.8182 v 5.00897 q 0,0.866 0.039,1.35804 0.039,0.4822 0.2756,0.90535 0.2165,0.39363 0.5904,0.58061 0.3838,0.17713 1.1612,0.17713 0.4527,0 0.9447,-0.12793 0.4921,-0.13777 0.7086,-0.22633 h 0.098 z m -9.1913,-12.73402 h -2.0863 v -1.91896 h 2.0863 z m -0.1181,12.83243 h -1.8501 v -10.99219 h 1.8501 z m -3.9462,-14.65298 -5.3337,14.65298 h -2.598 l -5.3337,-14.65298 h 2.0862 l 4.5957,12.89148 4.5957,-12.89148 z m -22.3485,14.65298 h -1.8501 v -6.25876 q 0,-0.70854 -0.069,-1.36787 -0.059,-0.65934 -0.2657,-1.05297 -0.2263,-0.42316 -0.6495,-0.63965 -0.4231,-0.2165 -1.2202,-0.2165 -0.7774,0 -1.5549,0.39363 -0.7774,0.38379 -1.5548,0.98408 0.029,0.22634 0.049,0.53141 0.02,0.29522 0.02,0.59045 v 7.03618 h -1.8501 v -6.25876 q 0,-0.72822 -0.069,-1.37771 -0.059,-0.65934 -0.2657,-1.05297 -0.2263,-0.42316 -0.6495,-0.62981 -0.4231,-0.2165 -1.2202,-0.2165 -0.7578,0 -1.5254,0.37395 -0.7577,0.37395 -1.5155,0.95456 v 8.20724 h -1.85 v -10.99219 h 1.85 v 1.22026 q 0.866,-0.71838 1.7222,-1.12186 0.866,-0.40347 1.8402,-0.40347 1.1219,0 1.8993,0.47236 0.7873,0.47236 1.1711,1.30883 1.1218,-0.94472 2.0468,-1.35803 0.9251,-0.42316 1.978,-0.42316 1.8108,0 2.6669,1.10217 0.866,1.09233 0.866,3.0605 z m -19.6816,0 h -1.8501 v -1.22026 q -0.9349,0.73806 -1.791,1.13169 -0.8562,0.39364 -1.8895,0.39364 -1.732,0 -2.6964,-1.05297 -0.9644,-1.06281 -0.9644,-3.1097 v -7.13459 h 1.8501 v 6.25876 q 0,0.83647 0.079,1.43676 0.079,0.59045 0.3346,1.0136 0.2657,0.433 0.6889,0.62981 0.4231,0.19682 1.2301,0.19682 0.7184,0 1.5647,-0.37395 0.8561,-0.37395 1.5942,-0.95456 v -8.20724 h 1.8501 z m -12.7144,0 h -1.8501 v -15.31231 h 1.8501 z m -5.5108,0 h -1.8501 v -1.22026 q -0.9349,0.73806 -1.791,1.13169 -0.8562,0.39364 -1.8895,0.39364 -1.732,0 -2.6964,-1.05297 -0.9644,-1.06281 -0.9644,-3.1097 v -7.13459 h 1.8501 v 6.25876 q 0,0.83647 0.079,1.43676 0.079,0.59045 0.3346,1.0136 0.2657,0.433 0.6889,0.62981 0.4231,0.19682 1.2301,0.19682 0.7184,0 1.5647,-0.37395 0.8561,-0.37395 1.5942,-0.95456 v -8.20724 h 1.8501 z m -11.4941,-0.68886 q -0.9251,0.44284 -1.7615,0.68886 -0.8267,0.24602 -1.7615,0.24602 -1.1908,0 -2.1847,-0.34443 -0.9939,-0.35427 -1.7025,-1.0628 -0.7183,-0.70854 -1.112,-1.79103 -0.3936,-1.08249 -0.3936,-2.52909 0,-2.69639 1.4761,-4.23156 1.486,-1.53517 3.9167,-1.53517 0.9447,0 1.85,0.26571 0.9152,0.2657 1.673,0.64949 v 2.05673 h -0.098 q -0.8463,-0.65933 -1.7517,-1.0136 -0.8955,-0.35427 -1.7517,-0.35427 -1.5745,0 -2.4897,1.06281 -0.9053,1.05296 -0.9053,3.09986 0,1.98784 0.8856,3.06049 0.8956,1.06281 2.5094,1.06281 0.561,0 1.1416,-0.14761 0.5806,-0.14762 1.0431,-0.3838 0.4035,-0.20665 0.7578,-0.43299 0.3542,-0.23618 0.5609,-0.40348 h 0.098 z m -11.6122,-12.14357 h -2.0862 v -1.91896 h 2.0862 z m -0.1181,12.83243 h -1.85 v -10.99219 h 1.85 z m -3.6312,-8.97483 h -0.098 q -0.4134,-0.0984 -0.807,-0.13777 -0.3838,-0.0492 -0.9152,-0.0492 -0.85606,0 -1.65316,0.38379 -0.7972,0.37395 -1.5352,0.97424 v 7.80377 h -1.8501 v -10.99219 h 1.8501 v 1.62373 q 1.1022,-0.88567 1.9386,-1.24978 0.8463,-0.37395 1.72216,-0.37395 0.4822,0 0.6987,0.0295 0.2165,0.0197 0.6495,0.0886 z m -8.62056,0 h -0.098 q -0.4133,-0.0984 -0.807,-0.13777 -0.3837,-0.0492 -0.9151,-0.0492 -0.8562,0 -1.6533,0.38379 -0.7971,0.37395 -1.5352,0.97424 v 7.80377 h -1.85 v -10.99219 h 1.85 v 1.62373 q 1.1022,-0.88567 1.9387,-1.24978 0.8463,-0.37395 1.7221,-0.37395 0.4822,0 0.6987,0.0295 0.2165,0.0197 0.6495,0.0886 z m -10.5002,8.97483 h -1.85 v -1.22026 q -0.9349,0.73806 -1.7911,1.13169 -0.8561,0.39364 -1.8894,0.39364 -1.732,0 -2.6964,-1.05297 -0.9644,-1.06281 -0.9644,-3.1097 v -7.13459 h 1.8501 v 6.25876 q 0,0.83647 0.079,1.43676 0.079,0.59045 0.3346,1.0136 0.2657,0.433 0.6889,0.62981 0.4231,0.19682 1.2301,0.19682 0.7184,0 1.5647,-0.37395 0.8561,-0.37395 1.5942,-0.95456 v -8.20724 h 1.85 z m -11.74,-1.06281 q -0.5413,0.23618 -0.9841,0.44284 -0.433,0.20666 -1.1416,0.433 -0.6003,0.18697 -1.3088,0.3149 -0.6987,0.13777 -1.545,0.13777 -1.5942,0 -2.903,-0.44283 -1.299,-0.45268 -2.2634,-1.40724 -0.9448,-0.93488 -1.4762,-2.37164 -0.5314,-1.4466 -0.5314,-3.35572 0,-1.81071 0.5118,-3.23763 0.5117,-1.42692 1.4761,-2.411 0.9349,-0.95456 2.2535,-1.45644 1.3285,-0.50188 2.9424,-0.50188 1.1809,0 2.352,0.28538 1.1809,0.28539 2.6177,1.00377 v 2.31259 h -0.1477 q -1.2104,-1.01361 -2.4011,-1.47612 -1.1908,-0.46252 -2.5488,-0.46252 -1.112,0 -2.0075,0.36411 -0.8857,0.35427 -1.5844,1.11201 -0.679,0.73806 -1.0628,1.86976 -0.374,1.12185 -0.374,2.59797 0,1.54501 0.4134,2.65702 0.4231,1.11202 1.0825,1.81071 0.6888,0.72823 1.604,1.0825 0.925,0.34442 1.9485,0.34442 1.4072,0 2.6373,-0.4822 1.2301,-0.4822 2.3028,-1.4466 h 0.1378 z m -20.83586,15.9287 c 71.11702,0.0224 142.23402,0.0448 213.35112,0.0672 0.05,-12.50082 0.1,-25.00163 0.1496,-37.50244 -71.1192,-0.026 -142.2383,-0.052 -213.35746,-0.078 -0.0478,12.5044 -0.0955,25.0088 -0.14326,37.5132 z"
         inkscape:connector-curvature="0"
         style="fill:#ff6600" />
    </g>
    <flowRoot
       xml:space="preserve"
       id="flowRoot3707"
       style="fill:black;fill-opacity:1;stroke:none;font-family:sans-serif;font-style:normal;font-weight:normal;font-size:40px;line-height:25px;letter-spacing:0px;word-spacing:0px"><flowRegion
         id="flowRegion3709"><rect
           id="rect3711"
           width="60"
           height="325.71429"
           x="1437.1428"
           y="453.94824" /></flowRegion><flowPara
         id="flowPara3713" /></flowRoot>  </g>
</svg>
